Coordinates
version=1
nRows=12
nColumns=24
inDegrees=yes

Units are S.I. units (second, meters, Newtons, ...)
Angles are in degrees.

endheader
time	pelvis_tilt	pelvis_list	pelvis_rotation	pelvis_tx	pelvis_ty	pelvis_tz	hip_flexion_r	hip_adduction_r	hip_rotation_r	knee_angle_r	ankle_angle_r	subtalar_angle_r	mtp_angle_r	hip_flexion_l	hip_adduction_l	hip_rotation_l	knee_angle_l	ankle_angle_l	subtalar_angle_l	mtp_angle_l	lumbar_extension	lumbar_bending	lumbar_rotation
      3.05000000	    -11.36593765	      9.14200745	     -3.52871358	     -2.30255361	     -0.04576423	      0.46653137	      9.33097236	     -9.95383090	      4.08086317	    -53.80709197	    -16.43202468	      0.67092650	     15.07301249	     34.50111479	     12.17794209	      5.36627098	    -28.42831521	     -3.04309820	     -4.73402228	     -1.58365925	      9.52703510	    -10.11843635	     13.38029197
      3.05500000	    -11.34400173	      9.30561948	     -3.44354795	     -2.29489610	     -0.04460976	      0.46574170	     10.36187742	    -10.15347910	      3.98456601	    -55.12287286	    -16.52226370	     -0.88889401	     14.59494715	     33.82990188	     12.48899534	      5.39980595	    -28.12743973	     -2.77437663	     -4.90410329	     -1.59660543	      9.51203017	    -10.23909113	     13.19267079
      3.06000000	    -11.34510864	      9.41264595	     -3.34645267	     -2.28726599	     -0.04340986	      0.46497691	     11.41396387	    -10.28992863	      3.85888255	    -56.36777206	    -16.51552503	     -2.30378106	     13.89839087	     33.16223159	     12.73335945	      5.44677338	    -27.80571536	     -2.45668466	     -4.95096329	     -1.55398335	      9.51892786	    -10.30091718	     12.97336445
      3.06500000	    -11.37492336	      9.46987016	     -3.26041555	     -2.27953167	     -0.04213280	      0.46427515	     12.48112715	    -10.35942864	      3.74574474	    -57.52058392	    -16.40367227	     -3.49170660	     12.98550096	     32.47224652	     12.91174559	      5.54326927	    -27.41908839	     -2.09619008	     -4.94149021	     -1.46823953	      9.58541844	    -10.30694630	     12.73746943
      3.07000000	    -11.40870906	      9.51020665	     -3.12975238	     -2.27195604	     -0.04088975	      0.46354019	     13.56892735	    -10.43625894	      3.56139817	    -58.67921986	    -15.89707099	     -4.17527606	     11.55813829	     31.80312614	     13.08285743	      5.66328530	    -27.05629020	     -1.73402266	     -4.79818528	     -1.29302977	      9.62389432	    -10.30627936	     12.48650791
      3.07500000	    -11.38220597	      9.53968739	     -3.05505155	     -2.26433054	     -0.03942972	      0.46281453	     14.56405946	    -10.50086516	      3.43841463	    -59.60772708	    -15.70808829	     -4.97933439	     11.37292249	     31.01971796	     13.23477138	      5.78596031	    -26.60381578	     -1.48820050	     -4.86028913	     -1.26981462	      9.62121921	    -10.27615135	     12.26037700
      3.08000000	    -11.36603733	      9.51994687	     -2.94847484	     -2.25677418	     -0.03795223	      0.46209323	     15.55048509	    -10.52303504	      3.26333780	    -60.44426251	    -15.39747667	     -5.56595268	     11.26997854	     30.24457610	     13.34125383	      5.94904071	    -26.15926168	     -1.21817656	     -4.81740387	     -1.19552482	      9.61600111	    -10.20391161	     11.99263055
      3.08500000	    -11.35459227	      9.45571037	     -2.85103242	     -2.24921897	     -0.03641109	      0.46138680	     16.52419519	    -10.49489327	      3.08307907	    -61.17205548	    -15.04594985	     -5.98908847	     11.24069311	     29.44803991	     13.39771033	      6.16280973	    -25.68049038	     -0.95916795	     -4.78930847	     -1.13284929	      9.62431770	    -10.08072907	     11.72291755
      3.09000000	    -11.31920254	      9.36494249	     -2.79772760	     -2.24169554	     -0.03476425	      0.46076283	     17.46174258	    -10.42038478	      2.94316596	    -61.78454846	    -14.66342819	     -6.26051754	     11.34137990	     28.60441259	     13.40091069	      6.36353700	    -25.15873901	     -0.73184566	     -4.76901877	     -1.10364367	      9.61371587	     -9.91980776	     11.50016034
      3.09500000	    -11.31373386	      9.23558199	     -2.64528868	     -2.23421626	     -0.03316745	      0.45998252	     18.39015140	    -10.35240263	      2.66117826	    -62.30476586	    -14.23428198	     -6.43644513	     11.49443260	     27.79011599	     13.41158657	      6.66132916	    -24.65095358	     -0.50619723	     -4.75449648	     -1.07052971	      9.61219083	     -9.73674025	     11.16955767
      3.10000000	    -11.29548873	      9.05770371	     -2.51415486	     -2.22679071	     -0.03148587	      0.45924008	     19.28145201	    -10.21932151	      2.39470075	    -62.70870517	    -13.77555115	     -6.49237636	     11.72995326	     26.94718218	     13.35894842	      6.98232444	    -24.11682634	     -0.32355914	     -4.76667220	     -1.07403983	      9.59680534	     -9.49815449	     10.83381057
      3.10500000	    -11.25732098	      8.85089492	     -2.35560990	     -2.21939978	     -0.02974562	      0.45844006	     20.11275066	    -10.06957984	      2.09109845	    -62.99667236	    -13.27891183	     -6.45117192	     12.09480305	     26.07387957	     13.28658807	      7.32177492	    -23.56641881	     -0.18926598	     -4.80336855	     -1.12066965	      9.55118387	     -9.22955392	     10.42312193
